<svg width="298" height="457" viewBox="0 0 298 457" fill="none" xmlns="http://www.w3.org/2000/svg">
<path d="M101.24 355.46L101.24 456.87L198.217 456.87L198.217 355.46L101.24 355.46Z" fill="#AB5E18"/>
<path d="M92.2483 423.133C80.8303 423.133 71.5742 432.389 71.5742 443.807C71.5742 451.021 77.4228 456.87 84.6374 456.87L198.218 456.87L198.218 423.133L92.2483 423.133Z" fill="#AB5E18"/>
<path d="M145.555 85.9113C145.555 95.7896 137.749 103.798 128.119 103.798C118.49 103.798 110.684 95.7896 110.684 85.9113C110.684 76.0331 118.49 68.0251 128.119 68.0251C137.749 68.0251 145.555 76.0331 145.555 85.9113Z" fill="#FFA7A7"/>
<path d="M145.555 85.9113C145.555 95.7896 137.749 103.798 128.119 103.798C118.49 103.798 110.684 95.7896 110.684 85.9113C110.684 76.0331 118.49 68.0251 128.119 68.0251C137.749 68.0251 145.555 76.0331 145.555 85.9113Z" fill="#AB5E18"/>
<path d="M297.134 353.268C297.134 361.94 290.281 368.971 281.827 368.971C273.373 368.971 266.52 361.94 266.52 353.268C266.52 344.595 273.373 337.565 281.827 337.565C290.281 337.565 297.134 344.595 297.134 353.268Z" fill="#FFA7A7"/>
<path d="M297.134 353.268C297.134 361.94 290.281 368.971 281.827 368.971C273.373 368.971 266.52 361.94 266.52 353.268C266.52 344.595 273.373 337.565 281.827 337.565C290.281 337.565 297.134 344.595 297.134 353.268Z" fill="#CA841D"/>
<mask id="path-5-outside-1_2960_27134" maskUnits="userSpaceOnUse" x="155.562" y="355.46" width="106" height="102" fill="black">
<rect fill="white" x="155.562" y="355.46" width="106" height="102"/>
<path d="M164.562 355.46L164.563 456.87L261.539 456.87L261.539 355.46L164.562 355.46Z"/>
</mask>
<path d="M164.562 355.46L164.563 456.87L261.539 456.87L261.539 355.46L164.562 355.46Z" fill="#CA841D"/>
<path d="M173.562 355.46L173.563 456.87L155.563 456.87L155.562 355.46L173.562 355.46Z" fill="#AB5E18" mask="url(#path-5-outside-1_2960_27134)"/>
<path d="M99.1624 149.449C101.517 124.286 117.949 72.7994 164.843 68.1541C173.122 67.3334 212.825 69.2159 230.525 110.979C254.866 168.415 252.342 186.945 270.781 226.388C321.147 334.127 268.662 371.557 246.769 388.977C224.875 406.398 181.087 407.123 164.843 405.672C148.6 404.22 74.3951 397.352 55.3259 339.285C36.2567 281.217 75.856 219.855 82.2122 209.694C87.2973 201.564 95.6311 166.143 99.1624 149.449Z" fill="#CA841D"/>
<path d="M166.556 123.137C166.556 128.069 170.453 132.067 175.261 132.067C180.069 132.067 183.967 128.069 183.967 123.137C183.967 118.204 180.069 114.206 175.261 114.206C170.453 114.206 166.556 118.204 166.556 123.137Z" fill="#FFA7A7"/>
<path d="M166.556 123.137C166.556 128.069 170.453 132.067 175.261 132.067C180.069 132.067 183.967 128.069 183.967 123.137C183.967 118.204 180.069 114.206 175.261 114.206C170.453 114.206 166.556 118.204 166.556 123.137Z" fill="#EE8C8C"/>
<path d="M166.556 123.137C166.556 128.069 170.453 132.067 175.261 132.067C180.069 132.067 183.967 128.069 183.967 123.137C183.967 118.204 180.069 114.206 175.261 114.206C170.453 114.206 166.556 118.204 166.556 123.137Z" fill="#E68A6D"/>
<path d="M166.556 123.137C166.556 128.069 170.453 132.067 175.261 132.067C180.069 132.067 183.967 128.069 183.967 123.137C183.967 118.204 180.069 114.206 175.261 114.206C170.453 114.206 166.556 118.204 166.556 123.137Z" fill="#E68A6D"/>
<path d="M126.443 133.823C126.443 143.922 134.424 152.109 144.268 152.109C154.113 152.109 162.094 143.922 162.094 133.823C162.094 123.724 154.113 115.537 144.268 115.537C134.424 115.537 126.443 123.724 126.443 133.823Z" fill="#AB5E18"/>
<path fill-rule="evenodd" clip-rule="evenodd" d="M152.179 133.074C152.179 133.74 152.051 134.399 151.803 135.013C151.555 135.628 151.191 136.186 150.732 136.657C150.274 137.127 149.729 137.501 149.13 137.755C148.531 138.01 147.889 138.141 147.24 138.141C146.592 138.141 145.949 138.01 145.35 137.755C144.751 137.501 144.207 137.127 143.748 136.657C143.289 136.186 142.926 135.628 142.677 135.013C142.429 134.399 142.301 133.74 142.301 133.074H140.152C140.152 134.029 140.336 134.975 140.692 135.857C141.048 136.739 141.57 137.541 142.228 138.216C142.886 138.891 143.668 139.427 144.528 139.792C145.388 140.157 146.309 140.346 147.24 140.346C148.171 140.346 149.093 140.157 149.953 139.792C150.813 139.427 151.594 138.891 152.252 138.216C152.91 137.541 153.432 136.739 153.789 135.857C154.145 134.975 154.328 134.029 154.328 133.074H152.179Z" fill="black"/>
<path d="M134.135 122.033C134.135 122.988 134.318 123.933 134.674 124.815C135.03 125.697 135.553 126.499 136.211 127.174C136.869 127.849 137.65 128.385 138.51 128.75C139.37 129.116 140.292 129.304 141.223 129.304C142.153 129.304 143.075 129.116 143.935 128.75C144.795 128.385 145.576 127.849 146.235 127.174C146.893 126.499 147.415 125.697 147.771 124.815C148.127 123.933 148.311 122.988 148.311 122.033L141.223 122.033H134.135Z" fill="black"/>
<path fill-rule="evenodd" clip-rule="evenodd" d="M140.146 133.074C140.146 133.74 140.018 134.399 139.77 135.013C139.522 135.628 139.158 136.186 138.699 136.657C138.241 137.127 137.696 137.501 137.097 137.755C136.498 138.01 135.856 138.141 135.207 138.141C134.558 138.141 133.916 138.01 133.317 137.755C132.718 137.501 132.173 137.127 131.715 136.657C131.256 136.186 130.892 135.628 130.644 135.013C130.396 134.399 130.268 133.74 130.268 133.074H128.119C128.119 134.029 128.302 134.975 128.659 135.857C129.015 136.739 129.537 137.541 130.195 138.216C130.853 138.891 131.635 139.427 132.495 139.792C133.355 140.157 134.276 140.346 135.207 140.346C136.138 140.346 137.059 140.157 137.919 139.792C138.779 139.427 139.561 138.891 140.219 138.216C140.877 137.541 141.399 136.739 141.755 135.857C142.112 134.975 142.295 134.029 142.295 133.074H140.146Z" fill="black"/>
<path fill-rule="evenodd" clip-rule="evenodd" d="M140.152 125.412L140.154 135.661L142.303 135.661L142.301 125.412L140.152 125.412Z" fill="black"/>
<ellipse cx="123.728" cy="116.736" rx="5.16389" ry="5.29733" fill="black"/>
<ellipse cx="166.556" cy="117.839" rx="5.16389" ry="5.29733" fill="black"/>
<path d="M212.545 110.527C201.878 111.58 192.399 103.563 191.372 92.6209C190.345 81.6785 198.16 71.9541 208.827 70.9008C219.494 69.8475 228.973 77.8642 230 88.8065C231.027 99.7489 223.212 109.473 212.545 110.527Z" fill="#FFA7A7"/>
<path d="M212.545 110.527C201.878 111.58 192.399 103.563 191.372 92.6209C190.345 81.6785 198.16 71.9541 208.827 70.9008C219.494 69.8475 228.973 77.8642 230 88.8065C231.027 99.7489 223.212 109.473 212.545 110.527Z" fill="#CA841D"/>
<path d="M212.545 110.527C201.878 111.58 192.399 103.563 191.372 92.6209C190.345 81.6785 198.16 71.9541 208.827 70.9008C219.494 69.8475 228.973 77.8642 230 88.8065C231.027 99.7489 223.212 109.473 212.545 110.527Z" stroke="#AB5E18" stroke-width="11" stroke-linejoin="round"/>
<path d="M211.715 101.68C205.811 102.263 200.564 97.8255 199.995 91.7687C199.427 85.7118 203.753 80.3291 209.657 79.7461C215.561 79.1631 220.808 83.6005 221.377 89.6573C221.945 95.7142 217.619 101.097 211.715 101.68Z" fill="#FFA7A7"/>
<path d="M211.715 101.68C205.811 102.263 200.564 97.8255 199.995 91.7687C199.427 85.7118 203.753 80.3291 209.657 79.7461C215.561 79.1631 220.808 83.6005 221.377 89.6573C221.945 95.7142 217.619 101.097 211.715 101.68Z" fill="#FAB7B7"/>
<ellipse rx="28.3292" ry="13.1195" transform="matrix(0.757499 0.652836 -0.633599 0.773662 198.381 102.92)" fill="#CA841D"/>
<mask id="mask0_2960_27134" style="mask-type:alpha" maskUnits="userSpaceOnUse" x="118" y="111" width="11" height="12">
<ellipse cx="123.73" cy="116.735" rx="5.16389" ry="5.29733" fill="black"/>
</mask>
<g mask="url(#mask0_2960_27134)">
<ellipse cx="120.043" cy="112.541" rx="3.13687" ry="3.21792" fill="white"/>
<ellipse cx="126.445" cy="121.864" rx="4.99971" ry="5.12891" fill="white"/>
</g>
<mask id="mask1_2960_27134" style="mask-type:alpha" maskUnits="userSpaceOnUse" x="161" y="112" width="11" height="12">
<ellipse cx="166.558" cy="117.839" rx="5.16389" ry="5.29733" fill="black"/>
</mask>
<g mask="url(#mask1_2960_27134)">
<ellipse cx="162.801" cy="114.206" rx="3.13687" ry="3.21792" fill="white"/>
<ellipse cx="168.611" cy="122.323" rx="4.37092" ry="4.48386" fill="white"/>
</g>
<path d="M56.9982 317.986C56.9982 332.512 80.1593 390.76 138.593 384.391C173.814 380.553 203.869 343.389 203.869 310.732C203.869 233.485 157.924 203.175 134.679 199.741C105.779 195.47 85.6302 219.923 71.5874 251.354C54.0177 290.678 56.9982 303.461 56.9982 317.986Z" fill="#AB5E18"/>
<path d="M155.571 423.133C144.153 423.133 134.896 432.389 134.896 443.807C134.896 451.021 140.745 456.87 147.96 456.87L261.54 456.87L261.54 423.133L155.571 423.133Z" fill="#CA841D"/>
<path d="M188.336 226.833C190.997 226.29 196.333 225.462 206.796 209.688C227.022 206.62 251.34 233.67 251.34 249.367C251.34 265.063 233.764 283.159 212.051 285.808C184.423 289.179 159.046 276.173 151.693 271.181C144.527 266.316 138.649 261.127 135.369 251.034C129.693 233.567 144.353 212.057 164.443 219.514C172.237 222.406 181.601 228.208 188.336 226.833Z" fill="#CA841D"/>
<path d="M206.796 209.688C196.333 225.461 190.997 226.29 188.336 226.833C181.601 228.207 172.237 222.406 164.443 219.513C144.353 212.056 129.693 233.566 135.369 251.033C138.649 261.127 144.527 266.316 151.693 271.181C159.046 276.173 184.423 289.178 212.051 285.808C233.764 283.159 251.34 265.063 251.34 249.367" stroke="#AB5E18" stroke-width="7"/>
<path d="M53.5172 276.179C16.8695 271.005 53.5169 201.782 87.4287 196.817C85.7337 203.673 81.9032 211.363 78.952 215.124C84.5612 214.727 95.418 217.856 94.8502 229.116C94.2343 241.33 72.1411 278.809 53.5172 276.179Z" fill="#CA841D"/>
<path d="M53.5176 276.179C72.1414 278.809 94.2347 241.33 94.8506 229.117C95.4184 217.857 84.5616 214.727 78.9524 215.125C73.2077 215.532 66.7894 219.162 63.5094 221.879" stroke="#AB5E18" stroke-width="7"/>
<path d="M58.4252 97.2509C60.0476 95.7253 64.1528 87.2102 47.0266 78.4258V80.249L45.3603 79.1088C43.3105 97.5415 47.4967 100.787 55.1209 99.4995L55.9388 96.9153L58.4252 97.2509Z" fill="#F3A5A5"/>
<path d="M44.868 41.9753C41.8302 38.9322 40.3214 31.2998 55.93 24.7883L55.4094 26.8699L57.0747 25.4289C59.1245 43.8616 52.4211 40.187 48.1723 44.2238L47.3874 41.4388L44.868 41.9753Z" fill="#FAB7B7"/>
<path d="M6.69389 13.7985C13.9056 15.7104 18.119 10.7229 18.119 0C2.15631 1.66249 -1.8144 9.39295 0.940614 8.72796C3.14463 8.19597 3.64166 8.5063 3.61467 8.72796C2.23716 9.78086 0.924499 12.269 6.69389 13.7985Z" fill="#FAB7B7"/>
<path d="M76.9564 99.7097C69.7446 101.622 65.5312 96.6341 65.5313 85.9111C81.4939 87.5736 79.9546 93.9741 82.7096 94.6391C83.4272 94.8123 81.2988 95.9152 81.3258 96.1369C82.7033 97.1898 82.7257 98.1802 76.9564 99.7097Z" fill="#FAB7B7"/>
</svg>
